<svg xmlns="http://www.w3.org/2000/svg" width="28" height="28" viewBox="0 0 28 28" fill="none">
  <path d="M14 2C7.37 2 2 7.05 2 13.28c0 3.54 1.73 6.7 4.45 8.78.23.18.37.45.38.74l.08 2.3c.03.88.94 1.45 1.71 1.05l2.58-1.34c.24-.12.51-.15.77-.08 1.3.36 2.68.55 4.03.55 6.63 0 12-5.05 12-11.28C26 7.05 20.63 2 14 2z" fill="#ffffff"/>
  <path d="M6.8 16.5l4.5-7.15c.6-.95 1.95-1.15 2.8-.42l3.55 3.05c.27.23.66.23.93 0l3.82-2.9c.56-.42 1.3.26.9 0.82l-4.5 7.15c-.6.95-1.95 1.15-2.8.42l-3.55-3.05c-.27-.23-.66-.23-.93 0l-3.82 2.9c-.56.42-1.3-.26-.9-.82z" fill="#111111"/>
</svg>
